<svg xmlns="http://www.w3.org/2000/svg" width="1536" height="754" style="cursor: move;"><g transform="translate(220.13336770167018,27.607500009208422) scale(0.8408964152537144)"><path class="link" marker-end="" d="M531,119.5, 788,367" style="stroke-width: 0.5; stroke-opacity: 1; stroke: rgb(80, 80, 80); opacity: 1;"></path><path class="link" marker-end="" d="M531,119.5, 788,435" style="stroke-width: 0.5; stroke-opacity: 1; stroke: rgb(80, 80, 80); opacity: 1;"></path><path class="link" marker-end="" d="M531,174.5, 788,367" style="stroke-width: 0.5; stroke-opacity: 1; stroke: rgb(80, 80, 80); opacity: 1;"></path><path class="link" marker-end="" d="M531,174.5, 788,435" style="stroke-width: 0.5; stroke-opacity: 1; stroke: rgb(80, 80, 80); opacity: 1;"></path><path class="link" marker-end="" d="M531,229.5, 788,367" style="stroke-width: 0.5; stroke-opacity: 1; stroke: rgb(80, 80, 80); opacity: 1;"></path><path class="link" marker-end="" d="M531,229.5, 788,435" style="stroke-width: 0.5; stroke-opacity: 1; stroke: rgb(80, 80, 80); opacity: 1;"></path><path class="link" marker-end="" d="M531,284.5, 788,367" style="stroke-width: 0.5; stroke-opacity: 1; stroke: rgb(80, 80, 80); opacity: 1;"></path><path class="link" marker-end="" d="M531,284.5, 788,435" style="stroke-width: 0.5; stroke-opacity: 1; stroke: rgb(80, 80, 80); opacity: 1;"></path><path class="link" marker-end="" d="M531,339.5, 788,367" style="stroke-width: 0.5; stroke-opacity: 1; stroke: rgb(80, 80, 80); opacity: 1;"></path><path class="link" marker-end="" d="M531,339.5, 788,435" style="stroke-width: 0.5; stroke-opacity: 1; stroke: rgb(80, 80, 80); opacity: 1;"></path><path class="link" marker-end="" d="M531,394.5, 788,367" style="stroke-width: 0.5; stroke-opacity: 1; stroke: rgb(80, 80, 80); opacity: 1;"></path><path class="link" marker-end="" d="M531,394.5, 788,435" style="stroke-width: 0.5; stroke-opacity: 1; stroke: rgb(80, 80, 80); opacity: 1;"></path><path class="link" marker-end="" d="M531,449.5, 788,367" style="stroke-width: 0.5; stroke-opacity: 1; stroke: rgb(80, 80, 80); opacity: 1;"></path><path class="link" marker-end="" d="M531,449.5, 788,435" style="stroke-width: 0.5; stroke-opacity: 1; stroke: rgb(80, 80, 80); opacity: 1;"></path><path class="link" marker-end="" d="M531,504.5, 788,367" style="stroke-width: 0.5; stroke-opacity: 1; stroke: rgb(80, 80, 80); opacity: 1;"></path><path class="link" marker-end="" d="M531,504.5, 788,435" style="stroke-width: 0.5; stroke-opacity: 1; stroke: rgb(80, 80, 80); opacity: 1;"></path><path class="link" marker-end="" d="M531,559.5, 788,367" style="stroke-width: 0.5; stroke-opacity: 1; stroke: rgb(80, 80, 80); opacity: 1;"></path><path class="link" marker-end="" d="M531,559.5, 788,435" style="stroke-width: 0.5; stroke-opacity: 1; stroke: rgb(80, 80, 80); opacity: 1;"></path><path class="link" marker-end="" d="M531,614.5, 788,367" style="stroke-width: 0.5; stroke-opacity: 1; stroke: rgb(80, 80, 80); opacity: 1;"></path><path class="link" marker-end="" d="M531,614.5, 788,435" style="stroke-width: 0.5; stroke-opacity: 1; stroke: rgb(80, 80, 80); opacity: 1;"></path><path class="link" marker-end="" d="M788,299, 1045,367" style="stroke-width: 0.5; stroke-opacity: 1; stroke: rgb(80, 80, 80); opacity: 1;"></path><path class="link" marker-end="" d="M788,367, 1045,367" style="stroke-width: 0.5; stroke-opacity: 1; stroke: rgb(80, 80, 80); opacity: 1;"></path><path class="link" marker-end="" d="M788,435, 1045,367" style="stroke-width: 0.5; stroke-opacity: 1; stroke: rgb(80, 80, 80); opacity: 1;"></path><path class="link" marker-end="" d="M531,119.5, 788,299" style="stroke-width: 0.5; stroke-opacity: 1; stroke: rgb(80, 80, 80);"></path><path class="link" marker-end="" d="M531,174.5, 788,299" style="stroke-width: 0.5; stroke-opacity: 1; stroke: rgb(80, 80, 80);"></path><path class="link" marker-end="" d="M531,229.5, 788,299" style="stroke-width: 0.5; stroke-opacity: 1; stroke: rgb(80, 80, 80);"></path><path class="link" marker-end="" d="M531,284.5, 788,299" style="stroke-width: 0.5; stroke-opacity: 1; stroke: rgb(80, 80, 80);"></path><path class="link" marker-end="" d="M531,339.5, 788,299" style="stroke-width: 0.5; stroke-opacity: 1; stroke: rgb(80, 80, 80);"></path><path class="link" marker-end="" d="M531,394.5, 788,299" style="stroke-width: 0.5; stroke-opacity: 1; stroke: rgb(80, 80, 80);"></path><path class="link" marker-end="" d="M531,449.5, 788,299" style="stroke-width: 0.5; stroke-opacity: 1; stroke: rgb(80, 80, 80);"></path><path class="link" marker-end="" d="M531,504.5, 788,299" style="stroke-width: 0.5; stroke-opacity: 1; stroke: rgb(80, 80, 80);"></path><path class="link" marker-end="" d="M531,559.5, 788,299" style="stroke-width: 0.5; stroke-opacity: 1; stroke: rgb(80, 80, 80);"></path><path class="link" marker-end="" d="M531,614.5, 788,299" style="stroke-width: 0.5; stroke-opacity: 1; stroke: rgb(80, 80, 80);"></path><circle r="15.5" class="node" id="0_0" cx="531" cy="119.5" style="fill: rgb(191, 29, 29); stroke: rgb(0, 0, 0); opacity: 1;"></circle><circle r="15.5" class="node" id="0_1" cx="531" cy="174.5" style="fill: rgb(191, 29, 29); stroke: rgb(0, 0, 0); opacity: 1;"></circle><circle r="15.5" class="node" id="0_2" cx="531" cy="229.5" style="fill: rgb(191, 29, 29); stroke: rgb(0, 0, 0); opacity: 1;"></circle><circle r="15.5" class="node" id="0_3" cx="531" cy="284.5" style="fill: rgb(191, 29, 29); stroke: rgb(0, 0, 0); opacity: 1;"></circle><circle r="15.5" class="node" id="0_4" cx="531" cy="339.5" style="fill: rgb(191, 29, 29); stroke: rgb(0, 0, 0); opacity: 1;"></circle><circle r="15.5" class="node" id="0_5" cx="531" cy="394.5" style="fill: rgb(191, 29, 29); stroke: rgb(0, 0, 0); opacity: 1;"></circle><circle r="15.5" class="node" id="0_6" cx="531" cy="449.5" style="fill: rgb(191, 29, 29); stroke: rgb(0, 0, 0); opacity: 1;"></circle><circle r="15.5" class="node" id="0_7" cx="531" cy="504.5" style="fill: rgb(191, 29, 29); stroke: rgb(0, 0, 0); opacity: 1;"></circle><circle r="15.5" class="node" id="0_8" cx="531" cy="559.5" style="fill: rgb(191, 29, 29); stroke: rgb(0, 0, 0); opacity: 1;"></circle><circle r="15.5" class="node" id="0_9" cx="531" cy="614.5" style="fill: rgb(191, 29, 29); stroke: rgb(0, 0, 0); opacity: 1;"></circle><circle r="15.5" class="node" id="1_0" cx="788" cy="299" style="fill: rgb(191, 29, 29); stroke: rgb(0, 0, 0); opacity: 1;"></circle><circle r="15.5" class="node" id="1_1" cx="788" cy="367" style="fill: rgb(191, 29, 29); stroke: rgb(0, 0, 0); opacity: 1;"></circle><circle r="15.5" class="node" id="1_2" cx="788" cy="435" style="fill: rgb(191, 29, 29); stroke: rgb(0, 0, 0); opacity: 1;"></circle><circle r="15.5" class="node" id="2_0" cx="1045" cy="367" style="fill: rgb(191, 29, 29); stroke: rgb(0, 0, 0); opacity: 1;"></circle><text class="text" dy=".35em" x="496" y="654.5" style="font-size: 12px;">Input Layer ∈ ℝ¹⁰</text><text class="text" dy=".35em" x="753" y="654.5" style="font-size: 12px;">Hidden Layer ∈ ℝ³</text><text class="text" dy=".35em" x="1010" y="654.5" style="font-size: 12px;">Output Layer ∈ ℝ¹</text></g><defs><marker id="arrow" viewBox="0 -5 10 10" markerWidth="7" markerHeight="7" orient="auto" refX="55.4"><path d="M0,-5L10,0L0,5" style="stroke: rgb(80, 80, 80); fill: rgb(80, 80, 80);"></path></marker></defs></svg>